<svg width="50" height="50" viewBox="0 0 50 50" fill="none" xmlns="http://www.w3.org/2000/svg">
<path d="M30 40.2778C30 39.9094 29.8536 39.5562 29.5932 39.2957C29.3327 39.0352 28.9794 38.8889 28.6111 38.8889H20.2777C19.9094 38.8889 19.5561 39.0352 19.2957 39.2957C19.0352 39.5562 18.8889 39.9094 18.8889 40.2778C18.8889 40.6462 19.0352 40.9994 19.2957 41.2599C19.5561 41.5204 19.9094 41.6667 20.2777 41.6667H28.6111C28.9794 41.6667 29.3327 41.5204 29.5932 41.2599C29.8536 40.9994 30 40.6462 30 40.2778Z" fill="#F4F4F4"/>
<path d="M31.3056 33.3333H22.9722C22.6039 33.3333 22.2506 33.4796 21.9901 33.74C21.7297 34.0005 21.5833 34.3538 21.5833 34.7221C21.5833 35.0905 21.7297 35.4438 21.9901 35.7042C22.2506 35.9647 22.6039 36.111 22.9722 36.111H31.3056C31.6739 36.111 32.0272 35.9647 32.2877 35.7042C32.5481 35.4438 32.6945 35.0905 32.6945 34.7221C32.6945 34.3538 32.5481 34.0005 32.2877 33.74C32.0272 33.4796 31.6739 33.3333 31.3056 33.3333Z" fill="#F4F4F4"/>
<path d="M30.5555 44.4445H22.2222C21.8538 44.4445 21.5006 44.5908 21.2401 44.8513C20.9796 45.1117 20.8333 45.465 20.8333 45.8333C20.8333 46.2017 20.9796 46.555 21.2401 46.8154C21.5006 47.0759 21.8538 47.2222 22.2222 47.2222H30.5555C30.9239 47.2222 31.2772 47.0759 31.5376 46.8154C31.7981 46.555 31.9444 46.2017 31.9444 45.8333C31.9444 45.465 31.7981 45.1117 31.5376 44.8513C31.2772 44.5908 30.9239 44.4445 30.5555 44.4445Z" fill="#F4F4F4"/>
<path d="M45.4167 44.4445H35.6945C35.3261 44.4445 34.9728 44.5908 34.7124 44.8513C34.4519 45.1117 34.3056 45.465 34.3056 45.8333C34.3056 46.2017 34.4519 46.555 34.7124 46.8154C34.9728 47.0759 35.3261 47.2222 35.6945 47.2222H45.4167C45.785 47.2222 46.1383 47.0759 46.3988 46.8154C46.6592 46.555 46.8056 46.2017 46.8056 45.8333C46.8056 45.465 46.6592 45.1117 46.3988 44.8513C46.1383 44.5908 45.785 44.4445 45.4167 44.4445Z" fill="#F4F4F4"/>
<path d="M46.8056 38.8889H37.0833C36.715 38.8889 36.3617 39.0352 36.1013 39.2957C35.8408 39.5562 35.6945 39.9094 35.6945 40.2778C35.6945 40.6462 35.8408 40.9994 36.1013 41.2599C36.3617 41.5204 36.715 41.6667 37.0833 41.6667H46.8056C47.1739 41.6667 47.5272 41.5204 47.7877 41.2599C48.0481 40.9994 48.1945 40.6462 48.1945 40.2778C48.1945 39.9094 48.0481 39.5562 47.7877 39.2957C47.5272 39.0352 47.1739 38.8889 46.8056 38.8889Z" fill="#F4F4F4"/>
<path d="M46.8611 36.111C46.454 31.2207 45.1251 26.4516 42.9444 22.0555C40.8554 18.0829 37.8456 14.6683 34.1666 12.0972L37.5 4.74994C37.6074 4.53036 37.655 4.2863 37.638 4.04243C37.6209 3.79856 37.5398 3.56352 37.4028 3.36105C37.2763 3.18343 37.1099 3.03807 36.9168 2.93673C36.7238 2.83539 36.5096 2.78092 36.2916 2.77771H13.6111C13.3776 2.77714 13.1477 2.83543 12.9428 2.9472C12.7378 3.05898 12.5643 3.22063 12.4383 3.41721C12.3123 3.61379 12.2379 3.83896 12.222 4.07191C12.2061 4.30485 12.2491 4.53804 12.3472 4.74994L15.75 12.1249C12.0979 14.6985 9.10857 18.1019 7.02776 22.0555C4.04164 27.611 3.11109 34.4027 2.86109 39.111C2.82015 39.8003 2.92243 40.4906 3.16147 41.1384C3.40051 41.7862 3.77113 42.3775 4.24998 42.8749C4.75325 43.3638 5.34917 43.747 6.0027 44.0022C6.65623 44.2575 7.35418 44.3794 8.05553 44.361H16.6666V41.6666H7.94442C7.6301 41.6656 7.31921 41.6011 7.03042 41.477C6.74164 41.3529 6.4809 41.1717 6.26387 40.9444C6.04651 40.7188 5.87865 40.4504 5.77103 40.1562C5.6634 39.862 5.61839 39.5486 5.63887 39.236C5.83331 35.611 6.5972 28.7083 9.4722 23.3333C11.4989 19.482 14.4959 16.2266 18.1666 13.8888H19.5555C18.6143 15.1908 17.7472 16.5448 16.9583 17.9444C16.1548 19.4336 15.4721 20.9849 14.9166 22.5833L16.8194 23.861C17.3816 22.2027 18.0735 20.5912 18.8889 19.0416C19.8901 17.2397 21.0276 15.5171 22.2916 13.8888H23.6805C24.6122 16.1157 25.2698 18.4477 25.6389 20.8333C25.9406 22.6042 26.0893 24.3979 26.0833 26.1944L28.2778 24.6527C28.2166 23.2559 28.0682 21.8643 27.8333 20.486C27.4607 18.2335 26.8651 16.0236 26.0555 13.8888H27.1389L28.4028 11.111H18.3472L15.7778 5.55549H34.125L30.6528 13.1527C31.248 13.4715 31.8189 13.8336 32.3611 14.236C35.7641 16.5838 38.555 19.7128 40.5 23.361C42.4481 27.3613 43.6574 31.6807 44.0694 36.111H46.8611Z" fill="#F4F4F4"/>
</svg>
