<svg width="304" height="299" viewBox="0 0 304 299" fill="none" xmlns="http://www.w3.org/2000/svg">
<path fill-rule="evenodd" clip-rule="evenodd" d="M40 0C17.9086 0 0 17.9086 0 40V194.9C0 207.855 6.15875 219.372 15.7081 226.682C22.7727 238.002 35.3401 245.533 49.6667 245.533H250C272.091 245.533 290 227.625 290 205.533V50.6333C290 37.6783 283.841 26.1617 274.292 18.8517C267.227 7.53179 254.66 0 240.333 0H40ZM274.292 18.8517C267.557 13.6964 259.136 10.6333 250 10.6333H49.6667C27.5753 10.6333 9.66667 28.542 9.66667 50.6333V205.533C9.66667 213.298 11.8792 220.546 15.7081 226.682C22.4427 231.837 30.8636 234.9 40 234.9H240.333C262.425 234.9 280.333 216.991 280.333 194.9V40C280.333 32.2351 278.121 24.987 274.292 18.8517Z" fill="#F5F5F5"/>
<path d="M41.4048 18.6C32.1048 20.9 21.7048 30.5 17.7048 40.5L15.4048 46.2L15.1048 133.9C14.8048 231.3 14.7048 229.8 21.3048 240C24.7048 245.4 29.9048 250.1 35.4048 253C42.1048 256.4 49.5048 256.7 122.605 256.7H194.905V278.2C194.905 298.5 195.005 299.7 196.705 298.8C197.605 298.2 204.305 292.8 211.405 286.6C218.605 280.5 229.405 271.2 235.605 266.1L246.705 256.7H258.105C277.505 256.7 286.405 254 294.605 245.5C296.905 243.2 300.105 238.5 301.605 235.2L304.405 229.2V136.7V44.2L301.105 37.5C297.505 30.1 291.305 23.9 283.905 20.4L279.405 18.2L161.905 18C97.3048 18 43.1048 18.2 41.4048 18.6ZM141.105 76.7L141.405 109.7L161.405 87.5C183.905 62.5 190.405 55.3 196.905 48.4L201.405 43.6L213.205 43.9L224.905 44.2L215.705 54.7C204.105 67.9 161.405 116.3 158.205 119.8L155.805 122.4L172.505 145.3C203.105 187.2 228.505 222.2 229.305 223.4C229.905 224.4 227.305 224.7 217.605 224.7H205.205L190.005 204.5C181.605 193.3 167.205 174.2 158.005 162L141.405 139.8L141.105 182.2L140.905 224.7H130.905H120.905V193.2V161.7H105.405H89.9048V151.2V140.7H105.405H120.905V130.2V119.7H105.405H89.9048V108.7V97.7H105.405H120.905V70.7V43.7H130.905H140.905L141.105 76.7Z" fill="#F5F5F5"/>
</svg>
