<svg width="329" height="322" viewBox="0 0 329 322" fill="none" xmlns="http://www.w3.org/2000/svg">
<path fill-rule="evenodd" clip-rule="evenodd" d="M52 14C29.9086 14 12 31.9086 12 54V208.9C12 221.855 18.1587 233.372 27.7081 240.682C34.7727 252.002 47.3401 259.533 61.6667 259.533H262C284.091 259.533 302 241.625 302 219.533V64.6333C302 51.6783 295.841 40.1617 286.292 32.8517C279.227 21.5318 266.66 14 252.333 14H52ZM286.292 32.8517C279.557 27.6964 271.136 24.6333 262 24.6333H61.6667C39.5753 24.6333 21.6667 42.542 21.6667 64.6333V219.533C21.6667 227.298 23.8792 234.546 27.7081 240.682C34.4427 245.837 42.8636 248.9 52 248.9H252.333C274.425 248.9 292.333 230.991 292.333 208.9V54C292.333 46.2351 290.121 38.987 286.292 32.8517Z" fill="#FF8A00"/>
<path d="M53.4048 32.6C44.1048 34.9 33.7048 44.5 29.7048 54.5L27.4048 60.2L27.1048 147.9C26.8048 245.3 26.7048 243.8 33.3048 254C36.7048 259.4 41.9048 264.1 47.4048 267C54.1048 270.4 61.5048 270.7 134.605 270.7H206.905V292.2C206.905 312.5 207.005 313.7 208.705 312.8C209.605 312.2 216.305 306.8 223.405 300.6C230.605 294.5 241.405 285.2 247.605 280.1L258.705 270.7H270.105C289.505 270.7 298.405 268 306.605 259.5C308.905 257.2 312.105 252.5 313.605 249.2L316.405 243.2V150.7V58.2L313.105 51.5C309.505 44.1 303.305 37.9 295.905 34.4L291.405 32.2L173.905 32C109.305 32 55.1048 32.2 53.4048 32.6ZM153.105 90.7L153.405 123.7L173.405 101.5C195.905 76.5 202.405 69.3 208.905 62.4L213.405 57.6L225.205 57.9L236.905 58.2L227.705 68.7C216.105 81.9 173.405 130.3 170.205 133.8L167.805 136.4L184.505 159.3C215.105 201.2 240.505 236.2 241.305 237.4C241.905 238.4 239.305 238.7 229.605 238.7H217.205L202.005 218.5C193.605 207.3 179.205 188.2 170.005 176L153.405 153.8L153.105 196.2L152.905 238.7H142.905H132.905V207.2V175.7H117.405H101.905V165.2V154.7H117.405H132.905V144.2V133.7H117.405H101.905V122.7V111.7H117.405H132.905V84.7V57.7H142.905H152.905L153.105 90.7Z" fill="#336699"/>
</svg>
