<svg width="32" height="32" viewBox="0 0 32 32" fill="none" xmlns="http://www.w3.org/2000/svg">
<path d="M18.3334 13.5867L19.1734 13.76L24.7334 16.5334C25.6667 16.84 26.28 17.76 26.2 18.7467V19.0934L25 27.2534C24.92 27.8267 24.6667 28.36 24.2 28.7334C23.7867 29.1334 23.24 29.3334 22.6667 29.3334H13.4934C12.84 29.3334 12.24 29.0934 11.8 28.6267L3.81335 20.6667L5.01335 19.3334C5.33335 19 5.84002 18.8134 6.32002 18.84H6.70669L12 20V6.00004C12 5.2928 12.281 4.61452 12.7811 4.11442C13.2812 3.61433 13.9594 3.33337 14.6667 3.33337C15.3739 3.33337 16.0522 3.61433 16.5523 4.11442C17.0524 4.61452 17.3334 5.2928 17.3334 6.00004V13.5867H18.3334V13.5867Z" fill="#CD89DF"/>
</svg>
